HIERARCHY
ROOT Hips
{
	OFFSET -0.179506 -22.333345 2.821913
	CHANNELS 6 Xposition Yposition Zposition Zrotation Yrotation Xrotation 
	JOINT LeftUpLeg
	{
		OFFSET 6.951974 -9.140623 -0.681533
		CHANNELS 3 Zrotation Yrotation Xrotation
		JOINT LeftLeg
		{
			OFFSET 3.427654 -37.519855 -0.449580
			CHANNELS 3 Zrotation Yrotation Xrotation
			JOINT LeftFoot
			{
				OFFSET -1.359570 -39.796059 -4.369333
				CHANNELS 3 Zrotation Yrotation Xrotation
				JOINT LeftToe
				{
					OFFSET 2.635814 -5.579078 11.928840
					CHANNELS 3 Zrotation Yrotation Xrotation
					End Site
					{
						OFFSET 0.000000 0.000000 0.000000
					}
				}
			}
		}
	}
	JOINT RightUpLeg
	{
		OFFSET -6.767048 -9.052170 -0.431982
		CHANNELS 3 Zrotation Yrotation Xrotation
		JOINT RightLeg
		{
			OFFSET -3.829005 -38.256897 -0.885003
			CHANNELS 3 Zrotation Yrotation Xrotation
			JOINT RightFoot
			{
				OFFSET 1.577377 -39.841461 -4.231180
				CHANNELS 3 Zrotation Yrotation Xrotation
				JOINT RightToe
				{
					OFFSET -2.537174 -4.814398 12.334795
					CHANNELS 3 Zrotation Yrotation Xrotation
					End Site
					{
						OFFSET 0.000000 0.000000 0.000000
					}
				}
			}
		}
	}
	JOINT Spine
	{
		OFFSET -0.253288 10.896323 -2.669631
		CHANNELS 3 Zrotation Yrotation Xrotation
		JOINT Spine1
		{
			OFFSET 0.548704 13.518043 0.109247
			CHANNELS 3 Zrotation Yrotation Xrotation
			JOINT Spine2
			{
				OFFSET 0.145701 5.292222 2.542457
				CHANNELS 3 Zrotation Yrotation Xrotation
				JOINT Neck
				{
					OFFSET -0.277840 21.387037 -4.285703
					CHANNELS 3 Zrotation Yrotation Xrotation
					JOINT Head
					{
						OFFSET 0.515184 6.496960 5.134897
						CHANNELS 3 Zrotation Yrotation Xrotation
						End Site
						{
							OFFSET 0.000000 0.000000 0.000000
						}
					}
				}
				JOINT LeftShoulder
				{
					OFFSET 7.884473 12.174932 -3.408961
					CHANNELS 3 Zrotation Yrotation Xrotation
					JOINT LeftArm
					{
						OFFSET 9.097692 3.046888 -0.886815
						CHANNELS 3 Zrotation Yrotation Xrotation
						JOINT LeftForeArm
						{
							OFFSET 25.961220 -1.277207 -2.745643
							CHANNELS 3 Zrotation Yrotation Xrotation
							JOINT LeftHand
							{
								OFFSET 24.923361 0.898606 -0.117091
								CHANNELS 3 Zrotation Yrotation Xrotation
								End Site
								{
									OFFSET 0.000000 0.000000 0.000000
								}
							}
						}
					}
				}
				JOINT RightShoulder
				{
					OFFSET -8.175920 11.883285 -3.861528
					CHANNELS 3 Zrotation Yrotation Xrotation
					JOINT RightArm
					{
						OFFSET -9.601238 3.255117 -0.914307
						CHANNELS 3 Zrotation Yrotation Xrotation
						JOINT RightForeArm
						{
							OFFSET -25.374195 -1.332924 -2.140099
							CHANNELS 3 Zrotation Yrotation Xrotation
							JOINT RightHand
							{
								OFFSET -25.529810 0.777228 -0.555919
								CHANNELS 3 Zrotation Yrotation Xrotation
								End Site
								{
									OFFSET 0.000000 0.000000 0.000000
								}
							}
						}
					}
				}
			}
		}
	}
}
MOTION
Frames: 18
Frame Time: 0.033333
-7.451347 -328.356781 94.267754 170.754076 -2.992079 85.509861 -2.006496 -4.582789 -19.244640 -1.849353 6.524636 12.060426 -7.460934 5.674572 6.195892 nan nan nan -1.920651 -7.952070 29.652512 -2.559081 3.224515 -6.695445 10.866415 4.170883 -6.145907 nan nan nan 1.012903 11.270530 8.046442 -2.179293 -0.032540 2.530792 -1.032821 4.994376 -0.118454 -3.449160 -1.312938 3.695185 3.261012 -4.217728 -2.073113 -20.863996 13.171450 0.505978 -64.722149 4.436677 8.747391 6.621801 -26.012766 -6.029294 4.152079 -10.214181 -35.615624 18.533133 -1.783960 1.023527 64.529638 11.405314 17.225767 -0.160971 31.932452 4.964615 2.991895 8.291521 -18.843669 
-7.441565 -327.525391 94.283875 170.816016 -3.183924 85.412213 -2.499991 -4.833053 -18.836550 -1.920462 6.162933 12.548480 -6.811358 5.649082 5.544406 nan nan nan -2.190764 -7.877928 29.832921 -2.662819 3.277043 -6.089863 11.103946 3.906339 -5.787779 nan nan nan 0.816611 11.149691 7.909045 -2.208938 -0.137676 2.401389 -1.081678 5.003443 -0.000983 -3.367998 -1.496059 3.985523 3.308856 -4.046828 -2.252882 -20.790435 13.156081 0.505534 -64.477874 4.356300 8.878716 6.376231 -25.808257 -5.778536 5.210111 -10.194192 -36.254738 18.565213 -1.897538 0.925506 64.391995 11.008254 17.398375 0.357182 32.073700 5.351504 2.379581 8.275875 -19.381364 
-7.420340 -326.722778 94.314964 170.756592 -3.196148 85.324720 -2.745977 -5.021103 -18.556954 -1.891128 5.923878 13.205490 -6.274820 5.733161 5.091399 nan nan nan -2.375966 -7.792122 29.906834 -2.549141 3.204770 -5.302950 11.274832 3.707504 -5.272353 nan nan nan 0.834212 11.069398 7.833985 -2.197558 -0.210766 2.315773 -1.148117 5.014403 0.033399 -3.369283 -1.658841 4.151130 3.320710 -3.929441 -2.384121 -20.751017 13.095485 0.547621 -64.269908 4.258038 8.966282 6.289334 -25.722892 -5.792538 5.735753 -10.185152 -36.767006 18.497591 -2.030326 0.885715 64.447389 10.634027 17.510204 0.503885 32.218858 5.478436 2.091188 8.257061 -19.757941 
-7.394094 -325.948914 94.359741 170.539867 -3.174134 85.266545 -2.937150 -4.996029 -18.288329 -1.894724 5.633623 13.823894 -5.841095 5.721261 4.798957 nan nan nan -2.587827 -7.672896 29.833339 -2.436711 3.243630 -4.289393 11.567626 3.658248 -4.833634 nan nan nan 0.863740 11.006092 7.809789 -2.165827 -0.194443 2.235194 -1.199746 5.069486 -0.060257 -3.462527 -1.634548 4.320830 3.348034 -3.754925 -2.485420 -20.677757 12.953320 0.603884 -64.097108 4.259215 9.058516 6.263964 -25.659008 -5.728482 6.192620 -10.043301 -36.931042 18.421895 -2.018926 0.922158 64.510662 10.223754 17.576539 0.477229 32.292899 5.562577 2.032937 8.338585 -20.181171 
-7.343787 -325.151123 94.413185 170.603475 -3.245688 85.172418 -3.279110 -5.130315 -17.927499 -1.916541 5.151691 14.369718 -5.360748 5.845445 4.238677 nan nan nan -2.789485 -7.637936 29.777513 -2.358579 3.227680 -3.168719 12.014690 3.527995 -4.382060 nan nan nan 0.724140 11.021135 7.823910 -2.145766 -0.211113 2.134811 -1.184860 5.074164 -0.102118 -3.508996 -1.784604 4.398721 3.428606 -3.693553 -2.623095 -20.454977 12.694969 0.754999 -63.933183 4.144832 9.050721 6.163680 -25.576826 -5.435886 6.329431 -9.999078 -36.993990 18.383472 -2.215748 0.662190 64.576248 9.654704 17.427607 0.599860 32.198191 5.869947 2.539695 8.590244 -20.040949 
-7.377481 -324.349487 94.486031 170.529575 -3.302037 85.213343 -3.610308 -5.407905 -17.581615 -1.783446 4.969020 14.685099 -4.816409 6.201806 3.636742 nan nan nan -3.072365 -7.533206 29.351559 -2.203832 3.233784 -1.677489 12.158707 3.537672 -4.065400 nan nan nan 0.702804 10.961957 7.436212 -2.095394 -0.214868 2.262609 -1.191258 5.021508 -0.072405 -3.603331 -1.955126 4.630049 3.288238 -3.409675 -2.800136 -20.367397 12.540846 0.747089 -63.952307 3.879930 9.120860 6.367063 -25.154676 -5.548868 5.900125 -9.836041 -37.066405 18.269960 -2.306257 0.627215 64.439162 9.440818 17.360900 0.762867 32.007166 6.029205 3.590155 8.774977 -19.693145 
-7.363896 -323.473419 94.546379 170.641694 -3.315556 85.196115 -3.872228 -5.693027 -17.146104 -1.606995 4.980024 15.046566 -4.415127 6.371387 3.077405 nan nan nan -3.203163 -7.488690 29.210473 -2.143150 3.009711 -0.478709 12.369954 3.473758 -3.380214 nan nan nan 0.530840 10.866683 6.718304 -1.918412 -0.367965 2.577547 -1.066356 4.866880 0.114501 -3.718298 -2.076357 5.076775 3.140014 -3.120461 -3.026735 -20.076311 12.328910 0.748739 -64.358879 3.292066 9.160663 6.700081 -23.951978 -6.141133 5.264933 -9.878942 -37.027708 18.035556 -2.300995 0.772659 64.472475 9.404444 17.388492 0.699361 31.832313 6.018722 4.556569 8.936706 -19.394047 
-7.323461 -322.536224 94.640091 170.865294 -3.604740 85.378757 -4.473473 -5.923077 -16.828697 -1.365972 4.921932 15.308271 -4.380887 6.485394 2.601795 nan nan nan -3.574517 -7.352859 28.878599 -2.077254 2.841214 0.622985 13.399614 3.336940 -2.742418 nan nan nan 0.280017 11.024107 6.192512 -1.951216 -0.371707 2.947013 -1.326468 4.606646 -0.317318 -3.435206 -2.167614 5.651187 3.303127 -3.306960 -3.513720 -19.915290 12.240740 1.016731 -64.019971 2.854110 9.152561 6.913786 -23.402294 -6.692566 4.597042 -10.461363 -36.475184 18.224094 -3.113977 0.547630 64.805517 8.944924 17.265294 0.731238 31.502879 6.069779 5.580344 9.200501 -19.115087 
-7.376715 -321.652893 94.767876 170.885457 -4.228552 85.947841 -5.618392 -6.565868 -16.991765 0.135247 6.064669 15.761668 -6.802698 5.696303 2.271986 nan nan nan -4.641648 -7.757656 27.290307 -3.311036 0.118698 3.448343 19.302530 6.161967 -0.892199 nan nan nan -0.921100 11.670949 4.217798 -1.723036 -0.808775 5.502123 -1.243928 4.567109 -2.400643 -1.874225 -1.056612 7.523321 2.329314 -4.726261 -4.270148 -18.174983 11.066434 2.624479 -65.835338 2.304948 6.154773 7.268035 -22.443226 -8.206127 1.717978 -12.326813 -32.714792 17.412893 -2.466134 0.365036 65.458097 7.413279 15.123448 1.569970 30.959784 6.169217 6.978871 10.301347 -19.369161 
-7.335948 -320.813171 94.850952 170.985072 -4.411808 85.958068 -5.939385 -7.284514 -16.385923 0.225368 6.190284 15.788826 -6.558909 6.033409 1.667973 nan nan nan -4.817695 -7.349789 26.653662 -3.172326 0.108854 5.371735 20.761427 5.747126 0.492288 nan nan nan -1.368708 11.641254 3.498367 -1.545519 -0.885515 6.087134 -1.263728 4.456612 -2.451242 -1.396391 -0.891838 7.491428 2.011004 -4.840852 -4.141572 -18.023002 10.934352 2.722322 -66.180293 1.662048 5.895105 8.190342 -21.732751 -8.821544 0.421974 -12.841089 -31.957979 17.465892 -2.525906 0.185037 65.604579 7.053994 15.217940 1.183004 30.652724 5.839755 8.209173 10.397136 -19.628385 
-7.332870 -320.039764 94.948112 170.876393 -4.354815 85.809455 -6.059453 -7.443956 -15.679555 0.122034 5.961701 15.903215 -6.049253 6.268641 1.103549 nan nan nan -4.793428 -6.862874 26.014290 -2.839051 1.020475 7.224989 19.832081 5.787826 1.200482 nan nan nan -1.292396 11.470223 3.400129 -1.470277 -0.798668 6.228257 -1.337077 4.421600 -2.517921 -1.321840 -0.764864 7.608152 2.017705 -4.843436 -4.143614 -18.023923 10.666766 2.651243 -66.043369 1.494351 5.987248 8.341276 -21.573049 -8.987371 0.194704 -12.671656 -31.750581 17.448103 -2.548407 0.235735 65.593137 6.755372 15.266889 0.900773 30.705823 5.773730 8.349006 10.122063 -19.839861 
-7.406427 -319.378998 95.063797 170.259300 -4.333895 85.637092 -6.127859 -7.282209 -14.959696 -0.139347 5.925056 15.905895 -5.750478 6.183349 0.752363 nan nan nan -5.205982 -6.473347 24.909893 -2.696609 0.903300 9.948127 20.045012 5.722473 1.860251 nan nan nan -0.944389 11.384172 3.986614 -1.556613 -0.400867 5.913418 -1.450259 4.482901 -2.824734 -1.292262 -0.692077 7.879780 1.965979 -4.916387 -4.114653 -18.083622 10.288039 2.638348 -66.008351 1.441259 6.114706 8.625856 -21.363044 -9.213957 0.393063 -12.575763 -31.414886 17.346386 -2.400205 0.310458 65.404968 6.310954 15.152508 0.846142 30.862029 5.795972 7.919207 9.833152 -19.650240 
-7.390100 -318.592773 95.163620 170.112224 -4.379653 85.650425 -6.222543 -7.195699 -14.450104 -0.353447 5.979978 16.006483 -5.420667 6.629778 -0.058122 nan nan nan -5.469904 -6.179555 24.073499 -2.429586 1.011828 12.165396 20.140456 5.868144 2.083050 nan nan nan -1.128534 11.333021 3.613863 -1.391367 -0.256249 5.951513 -1.465521 4.440438 -2.701354 -1.025806 -0.589536 7.817916 1.931641 -5.159884 -3.817203 -18.043355 10.043840 2.600597 -65.857862 1.194413 6.281210 8.696783 -21.189198 -9.414886 0.110873 -12.558167 -30.986312 17.497010 -2.480995 0.294231 65.151811 6.130524 15.155884 0.587231 30.885931 5.853198 9.240928 9.556162 -19.202854 
-7.225142 -317.784943 95.290077 169.902678 -4.065712 85.257021 -5.816536 -6.313471 -13.451250 -0.858478 5.727941 16.061304 -5.022360 6.489595 -0.715016 nan nan nan -5.291575 -6.110488 23.531379 -2.020182 1.400761 14.520303 18.112221 5.520277 2.107583 nan nan nan -1.125694 11.137492 3.880580 -1.206554 -0.035218 5.910287 -1.341390 4.502387 -2.859190 -0.966489 -0.781583 7.973149 2.179072 -4.993441 -3.651474 -17.935551 9.761215 2.563384 -65.604959 1.061426 5.930506 8.512810 -21.181387 -9.254349 -0.818255 -12.570224 -30.643929 17.447983 -2.433198 0.428108 65.194304 5.817156 14.823905 0.288330 30.732227 5.904595 10.553096 9.435020 -19.009833 
-7.223186 -317.011963 95.385918 169.961660 -3.998039 84.922973 -5.929020 -5.827091 -12.505780 -1.132803 5.380546 15.989611 -4.690829 6.444637 -1.307000 nan nan nan -5.572083 -6.036062 23.029319 -1.606297 1.885644 16.141357 18.150113 5.902794 3.899673 nan nan nan -1.004849 10.885980 4.192818 -1.212007 0.003914 5.802838 -1.304593 4.491998 -2.784928 -1.064653 -1.111450 8.000418 2.328099 -4.629983 -3.854017 -17.944152 9.539877 2.413305 -65.329737 0.985612 5.779574 8.380612 -21.568752 -9.169745 -1.373571 -12.687045 -29.533687 17.313832 -2.455816 0.344481 65.097376 5.584826 14.468832 0.198519 30.536025 5.717106 12.081104 9.246092 -17.753470 
-7.704889 -316.413544 95.287125 169.823265 -5.078451 86.095566 -7.633391 -7.552647 -13.315424 -0.583816 5.693932 15.746513 -3.925617 7.887757 -1.247636 nan nan nan -7.895117 -5.909014 19.809076 -0.872887 1.117375 19.958180 18.619207 6.833789 4.795623 nan nan nan -0.888111 10.630561 3.472490 -2.039855 0.151922 4.929828 -1.761886 4.357636 -2.030611 -1.019488 -0.821655 7.532190 2.257758 -4.739205 -3.703883 -17.684653 9.523415 1.917616 -65.649189 0.768953 5.793963 8.726549 -21.331046 -9.000305 -2.446531 -12.764400 -27.738108 16.747523 -2.576365 0.609994 65.891132 5.941435 13.894266 -0.175494 29.844443 4.975258 13.005167 9.809166 -17.531150 
-7.614804 -315.656311 95.314247 169.710399 -5.136322 86.014788 -7.786984 -7.349042 -12.637796 -0.725555 5.427848 15.662026 -3.676604 8.096950 -1.781927 nan nan nan -8.205436 -5.691518 18.689162 -0.593461 1.439829 22.632051 18.992606 6.522971 5.618037 nan nan nan -1.059625 10.309386 3.246648 -1.959748 0.300758 5.172766 -1.717204 4.304220 -1.891488 -1.007046 -0.869049 7.125140 2.229743 -4.506288 -3.518517 -17.596415 9.450571 1.706553 -65.683075 0.356382 5.849389 8.852160 -21.204072 -8.763051 -2.520744 -12.798362 -27.356644 16.530753 -2.349873 0.588288 66.011004 6.066617 14.000340 -0.340014 29.419378 4.105549 13.456294 9.794371 -17.415758 
-7.569836 -314.859833 95.352753 169.769237 -5.268812 85.790499 -8.181961 -7.124469 -11.645515 -0.864828 4.966030 15.277516 -3.133116 8.193269 -1.986335 nan nan nan -8.707043 -5.732791 17.856506 -0.531583 1.277852 24.709342 19.033588 6.075557 7.518969 nan nan nan -1.134832 9.956821 3.360768 -1.960085 0.402311 5.051535 -1.760350 4.263851 -1.637919 -0.934820 -1.017776 6.883370 2.236817 -4.294077 -3.319567 -17.515293 9.460583 1.726589 -65.537218 -0.231791 6.062306 8.651389 -21.104951 -8.626862 -1.943696 -13.766489 -28.453364 16.479630 -2.438778 0.561707 66.048260 6.065455 14.130354 -0.656720 28.997291 2.724992 11.523758 10.994444 -17.978545 
